<?xml version="1.0" encoding="UTF-8"?>
<!DOCTYPE svg PUBLIC "-//W3C//DTD SVG 1.1//EN" "http://www.w3.org/Graphics/SVG/1.1/DTD/svg11.dtd">
<svg xmlns="http://www.w3.org/2000/svg" version="1.1" width="612px" height="408px" style="shape-rendering:geometricPrecision; text-rendering:geometricPrecision; image-rendering:optimizeQuality; fill-rule:evenodd; clip-rule:evenodd" xmlns:xlink="http://www.w3.org/1999/xlink">
<g><path style="opacity:1" fill="#fbf3f2" d="M 384.5,20.5 C 385.117,20.6107 385.617,20.944 386,21.5C 386.518,38.4501 381.852,53.7834 372,67.5C 367.037,72.7152 361.203,74.2152 354.5,72C 351.5,69.3333 349.833,66 349.5,62C 350.06,57.9855 351.227,54.1521 353,50.5C 357.358,43.2447 362.524,36.7447 368.5,31C 373.727,27.2276 379.061,23.7276 384.5,20.5 Z"/></g>
<g><path style="opacity:0.157" fill="#d28282" d="M 329.5,24.5 C 330.5,24.5 331.5,24.5 332.5,24.5C 332.666,30.1764 332.499,35.8431 332,41.5C 331.721,44.4568 330.887,47.1234 329.5,49.5C 330.62,44.0649 331.286,38.5649 331.5,33C 331.389,29.8949 330.722,27.0616 329.5,24.5 Z"/></g>
<g><path style="opacity:1" fill="#fbf5f4" d="M 329.5,24.5 C 330.722,27.0616 331.389,29.8949 331.5,33C 331.286,38.5649 330.62,44.0649 329.5,49.5C 328.269,60.8005 323.269,69.9672 314.5,77C 304.656,80.1796 299.323,76.5129 298.5,66C 303.12,47.9385 313.453,34.1052 329.5,24.5 Z"/></g>
<g><path style="opacity:1" fill="#fcf5f4" d="M 399.5,97.5 C 397.897,96.3228 396.564,96.4894 395.5,98C 395.957,98.414 396.291,98.914 396.5,99.5C 393.731,101.096 391.397,103.096 389.5,105.5C 384.284,108.385 379.784,107.385 376,102.5C 375.333,98.1667 375.333,93.8333 376,89.5C 384.5,73.6667 396.667,61.5 412.5,53C 413.833,52.3333 415.167,52.3333 416.5,53C 415.157,69.5835 409.49,84.4168 399.5,97.5 Z"/></g>
<g><path style="opacity:1" fill="#fcf5f4" d="M 235.5,77.5 C 237.136,78.7489 238.303,80.4156 239,82.5C 243.199,94.4894 244.532,106.823 243,119.5C 242.068,127.066 238.068,132.066 231,134.5C 223.04,133.371 218.54,128.705 217.5,120.5C 218.848,104.098 224.848,89.7644 235.5,77.5 Z"/></g>
<g><path style="opacity:0.996" fill="#ebc3be" d="M 399.5,97.5 C 397.653,102.012 394.32,104.679 389.5,105.5C 391.397,103.096 393.731,101.096 396.5,99.5C 396.291,98.914 395.957,98.414 395.5,98C 396.564,96.4894 397.897,96.3228 399.5,97.5 Z"/></g>
<g><path style="opacity:0.999" fill="#fcf5f4" d="M 422.5,121.5 C 423.5,121.5 424.5,121.5 425.5,121.5C 425.448,125.198 425.114,128.865 424.5,132.5C 421.695,144.273 415.695,153.94 406.5,161.5C 401.33,163.093 396.33,162.76 391.5,160.5C 390.778,160.082 390.278,159.416 390,158.5C 389.05,152.066 390.716,146.4 395,141.5C 402.342,132.325 411.508,125.658 422.5,121.5 Z"/></g>
<g><path style="opacity:0.024" fill="#d8a19e" d="M 422.5,121.5 C 423.919,120.549 425.585,120.216 427.5,120.5C 427.245,124.8 426.245,128.8 424.5,132.5C 425.114,128.865 425.448,125.198 425.5,121.5C 424.5,121.5 423.5,121.5 422.5,121.5 Z"/></g>
<g><path style="opacity:0.527" fill="#e5beb9" d="M 391.5,160.5 C 396.33,162.76 401.33,163.093 406.5,161.5C 401.143,165.78 396.143,165.446 391.5,160.5 Z"/></g>
</svg>
